<svg version="1.1" viewBox="0 0 256 256" xmlns="http://www.w3.org/2000/svg">
  <path d="m256 121.03h-29.308c-3.541-51.902-46.321-93.033-98.406-93.033-52.085 0-94.865 41.132-98.406 93.033h-29.88v13.933h29.88c3.541 51.902 46.321 93.033 98.406 93.033 52.085 0 94.865-41.132 98.406-93.033h29.308zm-127.71 93.033c-44.503 0-81.115-34.889-84.625-79.1h42.245v51.145l70.443-45.221v44.583h13.745v-50.508h42.817c-3.5101 44.212-40.122 79.1-84.625 79.1zm-28.635-119.02 51.214 32.877-51.214 32.877zm70.443 25.991v-50.508h-13.745v44.423l-70.443-45.223v51.307h-42.245c3.5101-44.212 40.122-79.1 84.625-79.1 44.503 0 81.115 34.889 84.625 79.1z"/>
</svg>
