<svg viewBox="0 0 256 256" xmlns="http://www.w3.org/2000/svg">
  <path d="m213.58 32.56-20.72 20.72c-39.2-34.2-98.54-33.03-135.37 3.8s-38 96.17-3.8 135.37l-21.13 21.13 9.85 9.85 21.13-21.12c39.2 34.2 98.54 33.03 135.37-3.8s38-96.17 3.8-135.37l20.72-20.73zm-24.52 156.1c-31.47 31.46-82.03 32.68-115.77 3.9l29.87-29.87 36.17 36.16 17.83-81.79 31.53 31.53 9.72-9.72-35.72-35.72 30.28-30.27c28.78 33.74 27.56 84.3-3.91 115.77zM84.65 124.73l59.46-12.97-12.97 59.46zm68.19-31.43-35.72-35.72-9.72 9.72 31.42 31.41-81.8 17.84 36.29 36.28-29.87 29.87c-28.78-33.75-27.57-84.3 3.9-115.77s82.03-32.69 115.77-3.9z"/>
</svg>
